<svg width="0" height="0" class="hidden">
  <symbol xmlns="http://www.w3.org/2000/svg" viewBox="0 0 1108 731.18" id="dynamic-website">
    <title>react</title>
    <path d="M767.68 330.79l6.89-2.7c.66-.26 1.31-.54 2-.81a59.85 59.85 0 0115.28-115.77l-4.8 24.2 18.22-23.92h.16a59.87 59.87 0 0151.16 67.45c-.15 1.13-.39 2.23-.6 3.34 5.61-4.43 10.87-9.32 14.81-15 8-11.54 10.71-25.76 13.47-43.17 5.47-34.48 10.4-69.34 14.84-104.18a59.83 59.83 0 01-42-65.36c.25-1.82.6-3.59 1-5.34.1-.44.2-.88.31-1.31.43-1.69.91-3.35 1.47-5 .09-.27.21-.52.3-.78.5-1.37 1-2.72 1.65-4 .22-.5.44-1 .67-1.47a57.69 57.69 0 012.22-4.19c.27-.45.56-.88.83-1.33.62-1 1.27-2 1.94-2.93.36-.5.71-1 1.08-1.49l.27-.39a59.81 59.81 0 0174.64-17l-6.24 31.49 18-23.64a59.5 59.5 0 0116.32 68.62h.07c-.17.4-.38.78-.55 1.18-.33.74-.67 1.47-1 2.2-.46.93-1 1.84-1.45 2.74-.38.68-.75 1.36-1.16 2-.59 1-1.23 1.9-1.87 2.83-.38.54-.73 1.1-1.12 1.63-1 1.39-2.12 2.72-3.26 4-.4.45-.83.86-1.25 1.3-.81.86-1.62 1.71-2.48 2.52-.53.5-1.09 1-1.64 1.46-.79.7-1.6 1.38-2.43 2-.59.47-1.19.92-1.79 1.36a77.101 77.101 0 01-4.45 2.96c-1 .61-2.05 1.17-3.1 1.72-.53.27-1 .57-1.59.83-1.58.77-3.2 1.48-4.85 2.11-.31.12-.64.21-.95.32-1.38.5-2.77 1-4.18 1.35-.61.17-1.23.31-1.85.46-1.15.28-2.31.54-3.48.76q-1 .18-2.07.33c-1.15.17-2.31.3-3.48.4-.69.06-1.37.12-2.07.16-1.26.06-2.53.07-3.8.06a2.08 2.08 0 00-.25 0q-2.82 22-5.92 44a59.82 59.82 0 0186.4-10.32l-15.68 26.58 25.21-16.59a59.68 59.68 0 0111.5 44.16 58.76 58.76 0 01-4.5 15.94 59.83 59.83 0 01-111.19-4c-.23 1.48-.45 3-.68 4.46-2.44 15.35-5.47 34.46-16.23 50-7.29 10.56-17.33 18.36-27.09 25.22q-9.52 6.7-19.48 12.77a59.85 59.85 0 01-24.53 13.74q-16 8.19-32.69 14.81l-6.95 2.72c-6.25 2.44-12.65 4.94-19 7.6 1 .09 2 .17 3 .3a59.9 59.9 0 0150.86 49.05l-42.31 23.11 42.18-1.89A59.16 59.16 0 01797 450.13a59.87 59.87 0 01-82.7 11.74l2.1 3.91c1.4 2.58 2.78 5.15 4.12 7.7 18.33 34.74 19.66 64.74 3.75 84.49l-13-10.45c15.49-19.22 3.2-49.77-5.5-66.27-1.32-2.5-2.68-5-4-7.56-11.77-21.83-25.12-46.57-19.77-72.9 8-39.7 51.05-56.5 85.68-70zM269.6 519.01l-5.38-2.11c-.52-.2-1-.43-1.54-.63a46.75 46.75 0 00-11.94-90.42l3.75 18.9-14.22-18.68h-.13a46.76 46.76 0 00-40 52.68c.12.89.31 1.74.47 2.61a55.84 55.84 0 01-11.56-11.73c-6.23-9-8.37-20.12-10.53-33.71-4.23-26.93-8.07-54.15-11.52-81.33a46.72 46.72 0 0032.77-51.05c-.2-1.42-.47-2.8-.79-4.17l-.24-1a48.36 48.36 0 00-1.15-3.88c-.07-.21-.16-.41-.24-.61a48.24 48.24 0 00-1.28-3.15c-.18-.38-.35-.77-.53-1.15-.54-1.11-1.11-2.2-1.73-3.26-.21-.36-.44-.7-.65-1-.49-.78-1-1.55-1.52-2.29-.28-.39-.55-.79-.84-1.17l-.21-.3a46.76 46.76 0 00-58.29-13.32l4.88 24.6-14.07-18.46a46.48 46.48 0 00-12.75 53.59h-.05c.13.31.29.61.43.92.26.58.52 1.15.8 1.72q.54 1.08 1.14 2.13c.29.54.58 1.07.9 1.59.46.75 1 1.48 1.46 2.21.3.42.57.86.88 1.27.8 1.08 1.65 2.12 2.54 3.13.31.35.65.67 1 1 .63.67 1.27 1.33 1.94 2 .41.4.85.77 1.28 1.14q.93.83 1.89 1.59c.46.36.93.71 1.4 1.06.68.49 1.37 1 2.06 1.41.47.31.94.61 1.42.9.79.48 1.6.91 2.42 1.34.42.22.82.45 1.24.66 1.24.6 2.5 1.15 3.79 1.64.24.1.5.16.74.25 1.07.39 2.16.75 3.27 1.06.47.13 1 .24 1.44.35.9.22 1.8.43 2.72.6l1.61.26c.9.13 1.81.23 2.72.31.54.05 1.07.09 1.62.12 1 .05 2 .06 3 .05h.19q2.2 17.22 4.62 34.41a46.71 46.71 0 00-67.48-8.14l12.14 20.64-19.68-12.95a46.57 46.57 0 00-9 34.49 45.8 45.8 0 003.53 12.46 46.73 46.73 0 0086.84-3.12c.18 1.15.35 2.32.53 3.48 1.9 12 4.27 26.92 12.67 39.08 5.7 8.24 13.54 14.33 21.16 19.69q7.44 5.24 15.21 10a46.88 46.88 0 0019.16 10.74c8.32 4.26 16.84 8.14 25.54 11.56l5.42 2.13c4.88 1.9 9.88 3.85 14.81 5.93-.78.07-1.57.13-2.36.24a46.77 46.77 0 00-39.72 38.27l33 18-32.94-1.47a46.78 46.78 0 0073.57 29.2c-.55 1-1.09 2-1.64 3.05-1.09 2-2.17 4-3.22 6-14.31 27.13-15.35 50.57-2.92 66l10.13-8.16c-12.1-15-2.5-38.87 4.3-51.76 1-1.95 2.09-3.92 3.16-5.9 9.19-17 19.61-36.37 15.46-56.94-6.21-30.94-39.86-44.02-66.9-54.6z" fill="#f2f2f2"></path>
    <ellipse cx="554" cy="707.68" rx="554" ry="23.5" fill="#3f3d56"></ellipse>
    <ellipse cx="554" cy="707.68" rx="554" ry="23.5" opacity=".1"></ellipse>
    <ellipse cx="554" cy="694.68" rx="554" ry="23.5" fill="#3f3d56"></ellipse>
    <path d="M85 686.32c-3-5.51.4-12.26 4.28-17.18s8.61-10 8.51-16.29c-.14-9-9.7-14.31-17.33-19.08a84.78 84.78 0 01-15.56-12.51 23 23 0 01-4.78-6.4c-1.58-3.52-1.53-7.52-1.43-11.38q.5-19.26 1.9-38.48" fill="none" stroke="#3f3d56" stroke-miterlimit="10" stroke-width="4"></path>
    <path d="M46.11 564.29a14 14 0 017-11.49l3.14 6.21-.09-7.52a13.86 13.86 0 014.62-.56 14 14 0 11-14.67 13.36zm25.03 95a14 14 0 0026.5-5.76 13.82 13.82 0 00-.91-5.69 14 14 0 00-26.27.15l8.77 7.13-9.64-2.24a13.89 13.89 0 001.55 6.41zm6.93-27.25a14 14 0 004.46-27.54l.07 5.79-3.18-6.29a14.04 14.04 0 00-1.31 28.05zM44 609.37a14.016 14.016 0 001.32-28 13.88 13.88 0 00-7.52 1.78l2.48 6.8-5.11-4.9a14 14 0 00-4.53 9.69 13.33 13.33 0 00.36 3.85 14 14 0 0013 10.78z" fill="currentColor"></path>
    <path d="M48 568.03c3.24.36 6.39 1.37 9.64 1.57s6.82-.58 8.88-3.1c1.11-1.37 1.66-3.09 2.59-4.57a10.08 10.08 0 013.54-3.33 14 14 0 11-26.24 9.32c.53.02 1.06.06 1.59.11zm-4 41.34a14 14 0 0013.35-20 10.4 10.4 0 00-2.82 2.83c-1 1.51-1.61 3.25-2.78 4.64-2.19 2.57-5.92 3.41-9.31 3.25s-6.66-1.11-10-1.42c-.47 0-.94-.08-1.41-.09A14 14 0 0044 609.37zm34.07 22.67a14 14 0 0013.47-19.76 11.36 11.36 0 00-3 2.85c-1.09 1.54-1.77 3.31-3 4.73-2.36 2.64-6.34 3.57-9.93 3.48s-6.82-.93-10.28-1.19a14 14 0 0012.74 9.89zm-6.93 27.25a14 14 0 0026.5-5.76 13.82 13.82 0 00-.91-5.69 14 14 0 00-3.08 2.74c-1.34 1.63-2.21 3.47-3.76 5-2.87 2.82-7.5 4-11.62 4.09a62.35 62.35 0 01-7.13-.38z" opacity=".1"></path>
    <path d="M106.19 679.98s-11.08-.34-14.41-2.72-17-5.22-17.87-1.4-16.65 19-4.14 19.06 29.06-2 32.39-4 4.03-10.94 4.03-10.94z" fill="#656380"></path>
    <path d="M69.54 693.59c12.51.1 29.06-2 32.4-4 2.53-1.54 3.54-7.09 3.88-9.65h.37s-.7 8.93-4 11-19.89 4.08-32.39 4c-3.61 0-4.86-1.31-4.79-3.22.47 1.13 1.85 1.87 4.53 1.87z" opacity=".2"></path>
    <path d="M1055 695.32c-3-5.51.4-12.26 4.28-17.18s8.61-10 8.51-16.29c-.14-9-9.7-14.31-17.33-19.08a84.78 84.78 0 01-15.56-12.51 23 23 0 01-4.78-6.4c-1.58-3.52-1.53-7.52-1.43-11.38q.49-19.26 1.9-38.48" fill="none" stroke="#3f3d56" stroke-miterlimit="10" stroke-width="4"></path>
    <path d="M1016.11 573.29a14 14 0 017-11.49l3.14 6.21-.09-7.52a13.86 13.86 0 014.62-.56 14 14 0 11-14.68 13.36zm25.03 95a14 14 0 0026.5-5.76 13.82 13.82 0 00-.91-5.69 14 14 0 00-26.27.15l8.77 7.13-9.64-2.24a13.89 13.89 0 001.55 6.41zm6.93-27.25a14 14 0 004.46-27.54l.07 5.79-3.18-6.29a14.04 14.04 0 00-1.31 28.05zM1014 618.37a14.016 14.016 0 001.32-28 13.88 13.88 0 00-7.52 1.78l2.48 6.8-5.11-4.9a14 14 0 00-4.53 9.69 13.33 13.33 0 00.36 3.85 14 14 0 0013 10.78z" fill="currentColor"></path>
    <path d="M1018 577.03c3.24.36 6.39 1.37 9.64 1.57s6.82-.58 8.88-3.1c1.11-1.37 1.66-3.09 2.59-4.57a10.08 10.08 0 013.54-3.33 14 14 0 11-26.24 9.32c.53.02 1.06.06 1.59.11zm-4 41.34a14 14 0 0013.35-20 10.4 10.4 0 00-2.82 2.83c-1 1.51-1.61 3.25-2.78 4.64-2.19 2.57-5.92 3.41-9.31 3.25s-6.66-1.11-10-1.42c-.47 0-.94-.08-1.41-.09a14 14 0 0012.97 10.79zm34.07 22.67a14 14 0 0013.47-19.76 11.36 11.36 0 00-3 2.85c-1.09 1.54-1.77 3.31-3 4.73-2.36 2.64-6.34 3.57-9.93 3.48s-6.82-.93-10.28-1.19a14 14 0 0012.74 9.89zm-6.93 27.25a14 14 0 0026.5-5.76 13.82 13.82 0 00-.91-5.69 14 14 0 00-3.08 2.74c-1.34 1.63-2.21 3.47-3.76 5-2.87 2.82-7.5 4-11.62 4.09a62.35 62.35 0 01-7.13-.38z" opacity=".1"></path>
    <path d="M1076.19 688.98s-11.08-.34-14.41-2.72-17-5.22-17.87-1.4-16.65 19-4.14 19.06 29.06-2 32.39-4 4.03-10.94 4.03-10.94z" fill="#656380"></path>
    <path d="M1039.54 702.59c12.51.1 29.06-2 32.4-4 2.53-1.54 3.54-7.09 3.88-9.65h.37s-.7 8.93-4 11-19.89 4.08-32.39 4c-3.61 0-4.86-1.31-4.79-3.22.47 1.13 1.85 1.87 4.53 1.87z" opacity=".2"></path>
    <path d="M745.57 331.15q-9.92-3.4-20-6.3 1.66-6.79 3.09-13.65c15.14-73.51 5.24-132.73-28.57-152.22-32.42-18.7-85.44.8-139 47.39q-7.92 6.92-15.47 14.2-5.07-4.85-10.3-9.51c-56.11-49.83-112.32-70.82-146.14-51.27-32.39 18.75-42 74.42-28.35 144.09q2 10.35 4.59 20.58c-7.95 2.26-15.64 4.67-23 7.24-65.79 22.89-107.81 58.89-107.81 96.18 0 38.51 45.11 77.14 113.64 100.56q8.34 2.83 16.8 5.26-2.74 11-4.88 22.18c-13 68.46-2.84 122.82 29.46 141.45 33.37 19.26 89.37-.54 143.89-48.2 4.31-3.77 8.63-7.77 13-11.95q8.18 7.89 16.79 15.32c52.82 45.45 105 63.81 137.26 45.12 33.33-19.29 44.16-77.69 30.1-148.73q-1.6-8.14-3.73-16.61 5.91-1.74 11.56-3.61c71.24-23.6 117.6-61.76 117.6-100.79 0-37.43-43.38-73.62-110.5-96.73z" fill="#53c1de"></path>
    <path d="M730.12 503.47c-3.4 1.13-6.88 2.21-10.44 3.27a621.6 621.6 0 00-31.47-78.73 623.06 623.06 0 0030.25-77.58c6.35 1.84 12.53 3.78 18.47 5.83 57.51 19.79 92.59 49.06 92.59 71.62 0 24-37.89 55.21-99.4 75.59zm-25.52 50.58c6.22 31.41 7.1 59.81 3 82-3.7 19.95-11.14 33.25-20.34 38.58-19.59 11.33-61.47-3.4-106.64-42.27q-7.77-6.69-15.63-14.25a624.23 624.23 0 0052.09-66.14 620.2 620.2 0 0084.17-13q1.9 7.68 3.37 15zM446.48 672.69c-19.14 6.76-34.38 6.95-43.59 1.64-19.6-11.31-27.75-55-16.63-113.5q2-10.37 4.53-20.63a625.79 625.79 0 0083.75 12.13 645.09 645.09 0 0053.35 65.9q-5.79 5.61-11.84 10.91c-24.11 21.08-48.28 36-69.57 43.55zm-89.64-169.37c-30.31-10.36-55.33-23.82-72.49-38.5-15.41-13.2-23.19-26.31-23.19-36.94 0-22.63 33.74-51.5 90-71.11q10.6-3.69 21.39-6.73a637.08 637.08 0 0030.29 78.48 646.29 646.29 0 00-30.66 79.6q-7.74-2.21-15.34-4.8zm30.05-204.54c-11.68-59.69-3.93-104.72 15.59-116 20.79-12 66.76 5.12 115.22 48.15 3.1 2.75 6.21 5.63 9.32 8.6a635.89 635.89 0 00-52.93 65.52 648.42 648.42 0 00-82.93 12.89q-2.39-9.52-4.27-19.15zM655 364.97q-9.11-15.74-18.89-31.08c19.83 2.51 38.82 5.83 56.66 9.91a565.54 565.54 0 01-19.89 53.51q-8.61-16.35-17.88-32.34zM545.64 258.5a569.3 569.3 0 0136.57 44.14q-36.71-1.73-73.45 0c12.07-15.92 24.44-30.72 36.88-44.13zm-110 106.65q-9.15 15.87-17.55 32.14c-7.73-18.33-14.34-36.36-19.74-53.77 17.73-4 36.64-7.21 56.34-9.68q-9.92 15.44-19.07 31.31zm19.61 158.65a564.64 564.64 0 01-57.25-9.21c5.49-17.71 12.25-36.13 20.15-54.86q8.43 16.29 17.61 32.16 9.34 16.19 19.47 31.91zm91.14 75.33c-12.6-13.54-25.15-28.54-37.39-44.75q17.85.71 36.36.71 19 0 37.51-.84a563.94 563.94 0 01-36.5 44.88zm126.69-140.35A562.82 562.82 0 01694 513.44a561.35 561.35 0 01-58 9.89q9.85-15.63 19.08-31.63 9.38-16.26 18-32.92zm-41 19.66q-14.12 24.52-29.81 48.1c-18.44 1.32-37.49 2-56.91 2s-38.15-.6-56.27-1.78q-16.09-23.5-30.39-48.17t-26.51-50.08q12.27-25.53 26.43-50.1 14.14-24.56 30.13-48c18.49-1.4 37.43-2.13 56.59-2.13s38.22.74 56.69 2.14q15.81 23.37 30 47.81t26.79 49.87q-12.45 25.62-26.71 50.3zm54.77-296.46c20.81 12 28.9 60.4 15.83 123.87q-1.29 6.19-2.8 12.35a635.74 635.74 0 00-83.09-13.13 625.16 625.16 0 00-52.53-65.56q7-6.74 14.29-13.11c45.88-39.93 88.76-55.69 108.3-44.42z" fill="#fff"></path>
    <path d="M545.34 372.38a55.5 55.5 0 11-55.5 55.5 55.49 55.49 0 0155.5-55.5" fill="#53c1de"></path>
    <path d="M559.26 20.4a16.6 16.6 0 11-16.6-16.6 16.52 16.52 0 0116.6 16.6z" fill="#3f3d56"></path>
    <path d="M529.4 24.59A16.62 16.62 0 01541.89.05a16.6 16.6 0 101.41 33.07 16.6 16.6 0 01-13.9-8.53zm-7.49 18.93h44.47v69.37h-44.47z" fill="#3f3d56"></path>
    <path opacity=".1" d="M521.91 43.52h44.47v69.37h-44.47z"></path>
    <path d="M451.66 295.2s-4.75 13.05-16 14.83-17.79 4.74-17.79 4.74l26.68 17.19 14.23-1.78s1.78-18.38 7.71-22.53-14.83-12.45-14.83-12.45zm192.68 0s4.75 13.05 16 14.83 17.79 4.74 17.79 4.74l-26.68 17.19-14.23-1.78s-1.78-18.38-7.71-22.53 14.83-12.45 14.83-12.45z" fill="#a0616a"></path>
    <path d="M514.5 180.18s-7.11 3.56-9.48 10.68c0 0-13 4.15-20.16 15.41 0 0-8.9 9.49-10.08 14.23S460 253.7 460 253.7s-13.64 44.47-20.75 49.21c0 0 22.53-4.74 26.68 17.79 0 0 5.33 0 11.26-20.75s20.16-46.25 20.16-46.25 4.74-17.78 8.89-20.75 10.67-16.6 16.6-13 45.06-.6 45.06-.6 23.1 10.64 23.68 17.75 4.74 7.71 5.33 13.64 22.53 52.76 22.53 52.76 4.15 13 5.34 16c0 0 13-31.42 30.24-13.63 0 0-.6-11.86-5.93-19s-28.46-62.84-28.46-62.84-2.37-8.3-4.74-10.67-20.76-21.35-27.28-21.35c0 0-3.55-8.89-7.7-10.08zm-53.36 145.85a28.89 28.89 0 01-28.22-3.79 56.37 56.37 0 00-12.59-7.3c-6.29-2.54-13.81-4.42-16.1-.17-4.15 7.71 50.39 26.68 50.39 26.68s7.12-4.15 6.52-15.42zm173.72 0a28.89 28.89 0 0028.22-3.79 56.37 56.37 0 0112.59-7.3c6.29-2.54 13.81-4.42 16.1-.17 4.15 7.71-50.39 26.68-50.39 26.68s-7.12-4.15-6.52-15.42z" fill="#3f3d56"></path>
    <path d="M533.88 82.67c-.22 2.06-.9 4.29-2.66 5.38-1.44.9-3.26.83-4.92 1.17a11.46 11.46 0 00-7.82 6.77 17.51 17.51 0 00-.75 10.55 39.22 39.22 0 001.52 5.06c1.74 4.92 3.84 9.8 7.09 13.89a59 59 0 009.3 8.77c2.11 1.72 4.29 3.47 6.89 4.28a21.75 21.75 0 005.4.72c2.25.1 4.65.17 6.6-.95 3-1.73 3.89-5.55 5.52-8.62 1.38-2.6 3.44-4.81 4.73-7.46a29.49 29.49 0 002-6.52l2.77-12.3c1-4.47 1.92-9.51-.59-13.34a2.28 2.28 0 00-.74-.77 2.79 2.79 0 00-1.52-.15 16.44 16.44 0 01-9.15-2.09 3.93 3.93 0 01-1.15-.9 4.72 4.72 0 01-.7-2.12 22.2 22.2 0 00-1.28-4.45 3 3 0 00-.87-1.34 3.15 3.15 0 00-1.41-.47 114.47 114.47 0 00-12.93-1.35c-1.42-.07-3.56-.64-4.54.62s-.67 4.12-.79 5.62z" fill="#a0616a"></path>
    <path d="M533.88 82.67c-.22 2.06-.9 4.29-2.66 5.38-1.44.9-3.26.83-4.92 1.17a11.46 11.46 0 00-7.82 6.77 17.51 17.51 0 00-.75 10.55 39.22 39.22 0 001.52 5.06c1.74 4.92 3.84 9.8 7.09 13.89a59 59 0 009.3 8.77c2.11 1.72 4.29 3.47 6.89 4.28a21.75 21.75 0 005.4.72c2.25.1 4.65.17 6.6-.95 3-1.73 3.89-5.55 5.52-8.62 1.38-2.6 3.44-4.81 4.73-7.46a29.49 29.49 0 002-6.52l2.77-12.3c1-4.47 1.92-9.51-.59-13.34a2.28 2.28 0 00-.74-.77 2.79 2.79 0 00-1.52-.15 16.44 16.44 0 01-9.15-2.09 3.93 3.93 0 01-1.15-.9 4.72 4.72 0 01-.7-2.12 22.2 22.2 0 00-1.28-4.45 3 3 0 00-.87-1.34 3.15 3.15 0 00-1.41-.47 114.47 114.47 0 00-12.93-1.35c-1.42-.07-3.56-.64-4.54.62s-.67 4.12-.79 5.62z" opacity=".1"></path>
    <path d="M525.85 89.74a26.93 26.93 0 00-7.13-1.12c-5.72-.14-11.84 1.83-15.14 6.5a15.34 15.34 0 00-2.29 11.47 23.57 23.57 0 005.2 10.66 32 32 0 014 5.24c1.58 3 1.63 6.59 2.06 10 1 8.12 4.46 15.75 5.83 23.82s.19 17.42-6.18 22.55c-1.07.86-2.37 1.77-2.46 3.14-.14 2.19 2.71 3.12 4.9 3.33 6.55.62 13.27 1.23 19.63-.46 2.63-.7 5.17-1.79 7.85-2.29 6.8-1.27 13.64 1.34 20.45 2.59a90.61 90.61 0 0014.91 1.21 7.94 7.94 0 003.43-.45 2.75 2.75 0 001.74-2.74 4.76 4.76 0 00-1.18-2c-3.44-4.25-4.49-9.9-5.43-15.29l-3.15-18.11c-1.69-9.68-3.26-20.2 1.32-28.89 3.29-6.25 9.36-10.65 12.83-16.8a9.84 9.84 0 001.55-6.28c-.52-3.09-3.31-5.3-6.17-6.59a23.21 23.21 0 00-17.42-.64c.1 4.33-1 8.71-1.71 13l-1.21 7a88.83 88.83 0 01-2.71 12.2 12.85 12.85 0 01-2.17 4.42 11.43 11.43 0 01-3.83 2.79 22.83 22.83 0 01-10.14 2.32 13.54 13.54 0 01-4.48-.69 19 19 0 01-6.17-4.34 10.11 10.11 0 01-1.63-1.77 9.93 9.93 0 01-1.11-2.67 55.42 55.42 0 01-1.91-7.48c-.3-1.94-.4-3.91-.54-5.87-.39-5.79-.39-12.19-1.54-17.76z" fill="currentColor"></path>
    <path d="M519.84 204.49s-2.37 31.43 12.45 36.76 1.78-26.09 1.78-26.09l-4.75-9.48zm50.39 0s2.37 31.43-12.45 36.76-1.78-26.09-1.78-26.09l4.75-9.48z" fill="#a0616a"></path>
    <path d="M506.79 99.59l-4.74 7.71s4.15 26.68 4.74 31.42a62.2 62.2 0 002.38 10.08s.59 14.23.59 19.57 3 14.23 3 14.23a64.82 64.82 0 003 14.82c2.37 6.52 4.74 14.23 4.74 14.23s3-8.3 14.82 4.15a7.18 7.18 0 000-10.08s-3.55-16-3.55-24.31-6.53-48-6.53-48-4.24-45.12-18.45-33.82z" opacity=".1"></path>
    <path d="M505.61 98.96l-4.74 7.71s4.15 26.68 4.74 31.42a61.84 61.84 0 002.39 10.08s.59 14.23.59 19.56 3 14.23 3 14.23a64.53 64.53 0 003 14.82c2.37 6.53 4.75 14.23 4.75 14.23s3-8.3 14.82 4.15a7.18 7.18 0 000-10.07s-3.56-16-3.56-24.31-6.52-48-6.52-48-4.24-45.09-18.47-33.82z" fill="currentColor"></path>
    <path d="M583.87 94.81l3 3.53s3.49 20.18-4.22 45.68l-2.37 23.12s-4.15 19.57-4.74 24.31-.59 5.33-1.78 7.11a2.29 2.29 0 000 3l-3.56 13s-5.33-6.52-16 1.78c0 0-3-4.74-.6-8.89s2.37-5.93 1.78-7.12 2.37-7.11 2.37-8.3 4.18-28.44 4.18-28.44 1.78-26.68 3.56-35.57c1.09-5.47 1.07-17.66.88-26.24-.19-8.94 10.63-13.78 17-7.5.15.16.33.31.5.53z" opacity=".1"></path>
    <path d="M585.65 93.59l3 3.53s3.49 20.19-4.22 45.68l-2.37 23.12s-4.15 19.57-4.74 24.31-.6 5.34-1.78 7.12a2.28 2.28 0 000 3L572 213.39s-5.33-6.53-16 1.77c0 0-3-4.74-.59-8.89s2.37-5.93 1.78-7.11 2.37-7.12 2.37-8.3 4.15-28.46 4.15-28.46 1.78-26.68 3.56-35.58.59-35.57.59-35.57 9.49-6.52 17.79 2.34z" fill="currentColor"></path>
    <circle cx="545.92" cy="61.61" r="23.72" fill="#a0616a"></circle>
    <path d="M558.29 26a16.6 16.6 0 01-31.09.44c9.26-3.73 18.72-.41 18.72-.41 4.73-1.66 8.83-1.51 12.37-.03z" opacity=".1"></path>
    <path d="M545.92 27.22s-45.65-16-34.38 61.66c0 0 10.08 6.52 17.78 2.37 0 0-5.33-53.95 15.42-51.58s17.19 50.4 17.19 50.4 11.86 3.55 15.42-3-1.19-70.48-31.43-59.85z" fill="#3f3d56"></path>
    <path d="M544.74 36.11c-14.24-1.62-16.2 23.27-16 39.05.17-15.69 2.81-37 16-35.49 14.81 1.69 17.24 26.66 17.41 40.8.17-12.98-1.25-42.51-17.41-44.36zm-33.2 49.21a159.38 159.38 0 01-1.77-20.53 152.12 152.12 0 001.77 24.09s10.08 6.52 17.78 2.37c0 0-.12-1.28-.26-3.43-7.67 3.87-17.52-2.5-17.52-2.5zm65.81-1.73c-3.32 6.08-13.83 3.41-15.25 3-.07 2.2-.17 3.52-.17 3.52s11.86 3.55 15.42-3c.73-1.34 1.11-5.13 1-10.2-.1 3.25-.45 5.68-1 6.68z" opacity=".1"></path>
    <path d="M826.73 672.96c4.74-8.78-.64-19.54-6.82-27.37s-13.73-16-13.57-26c.23-14.35 15.45-22.81 27.62-30.42a134.77 134.77 0 0024.79-19.93c3-3.05 5.87-6.31 7.62-10.21 2.52-5.6 2.45-12 2.29-18.12q-.79-30.71-3-61.34" fill="none" stroke="#3f3d56" stroke-miterlimit="10" stroke-width="4"></path>
    <path d="M888.74 478.49a22.31 22.31 0 00-11.16-18.32l-5 9.9.15-12a22.37 22.37 0 1016 20.41zm-39.88 151.39a22.36 22.36 0 111.08-18l-14 11.37 15.37-3.57a22.25 22.25 0 01-2.45 10.2zm-11.05-43.43a22.37 22.37 0 01-7.09-43.86l-.12 9.22 5.06-10h.06a22.37 22.37 0 112.09 44.69zm54.3-36.13a22.37 22.37 0 119.89-41.86l-4 10.83 8.13-7.8a22.37 22.37 0 01-14.07 38.83z" fill="currentColor"></path>
    <path d="M885.74 484.45c-5.17.57-10.19 2.18-15.37 2.5s-10.87-.92-14.14-5c-1.77-2.17-2.65-4.91-4.14-7.28a16 16 0 00-5.63-5.3 22.37 22.37 0 1041.81 14.84c-.85.09-1.69.15-2.53.24zm6.37 65.87a22.39 22.39 0 01-21.28-31.91 16.37 16.37 0 014.5 4.51c1.59 2.4 2.56 5.18 4.43 7.39 3.48 4.09 9.44 5.43 14.84 5.19s10.6-1.78 16-2.28c.75-.06 1.5-.11 2.26-.13a22.37 22.37 0 01-20.75 17.23zm-54.3 36.13a22.37 22.37 0 01-21.46-31.49 17.83 17.83 0 014.73 4.55c1.74 2.45 2.82 5.27 4.86 7.54 3.77 4.2 10.11 5.68 15.83 5.54 5.54-.12 10.87-1.48 16.38-1.9a22.36 22.36 0 01-20.34 15.76zm11.05 43.43a22.37 22.37 0 01-40.78-18.29 22.27 22.27 0 014.91 4.38c2.13 2.59 3.53 5.53 6 7.94 4.57 4.49 11.95 6.34 18.52 6.51a97.1 97.1 0 0011.35-.54z" opacity=".1"></path>
    <path d="M793 662.85s17.65-.54 23-4.33 27.16-8.31 28.48-2.24 26.53 30.22 6.6 30.38-46.31-3.1-51.62-6.34-6.46-17.47-6.46-17.47z" fill="#656380"></path>
    <path d="M851.4 684.59c-19.93.16-46.31-3.11-51.62-6.34-4-2.47-5.65-11.3-6.19-15.38H793s1.12 14.24 6.43 17.47 31.69 6.5 51.62 6.34c5.75 0 7.74-2.09 7.63-5.12-.8 1.81-2.99 2.95-7.28 3.03z" opacity=".2"></path>
    <path d="M323 42.86l-18.25 11.57 11.08-20.15a18 18 0 00-11-3.94h-.3a21.58 21.58 0 01-3.78-.28l-6.19 3.92 2.65-4.82a22.06 22.06 0 01-10.82-8.21l-11.07 7 7-12.72c-6.48-7.77-15.2-12.54-24.81-12.54-11.51 0-21.76 6.85-28.38 17.52a21.24 21.24 0 01-18.76 10.12h-.62c-12.71 0-23 14.41-23 32.19s10.3 32.18 23 32.18a17.2 17.2 0 008-2c8.29-4.31 19.17-4.39 27.85-.54a29 29 0 0023.68.05c8.62-3.77 19.37-3.69 27.61.54a17.23 17.23 0 007.93 2c12.71 0 23-14.41 23-32.18A40.86 40.86 0 00323 42.86z" fill="#f2f2f2"></path>
    <path d="M288.59 89.95a34 34 0 00-19.72 2.14 29 29 0 01-23.67-.05c-8.69-3.85-19.57-3.77-27.86.54a17.2 17.2 0 01-8 2c-11.29 0-20.68-11.38-22.64-26.38a21.58 21.58 0 005.64-6.08c6.66-10.66 16.87-17.53 28.38-17.53s21.64 6.77 28.26 17.32a21.79 21.79 0 0018.76 10.31h.26c9 .01 16.8 7.22 20.59 17.73z" opacity=".03"></path>
    <path d="M800.07 66.42L791 72.19l5.53-10a9 9 0 00-5.51-2h-.14a10.79 10.79 0 01-1.89-.14l-3.09 2 1.3-2.46a11 11 0 01-5.4-4.09l-5.52 3.5 3.49-6.34a16.17 16.17 0 00-12.37-6.26c-5.75 0-10.86 3.42-14.16 8.74a10.57 10.57 0 01-9.36 5h-.31c-6.34 0-11.48 7.19-11.48 16s5.14 16.05 11.48 16.05a8.62 8.62 0 004-1 16.56 16.56 0 0113.89-.27 14.52 14.52 0 0011.81 0 16.58 16.58 0 0113.77.27 8.61 8.61 0 004 1c6.34 0 11.48-7.18 11.48-16.05a20.28 20.28 0 00-2.45-9.72z" fill="#f2f2f2"></path>
    <path d="M782.92 89.91a17 17 0 00-9.83 1.07 14.52 14.52 0 01-11.81 0 16.58 16.58 0 00-13.9.27 8.55 8.55 0 01-4 1c-5.64 0-10.32-5.67-11.3-13.15a10.93 10.93 0 002.82-3c3.3-5.32 8.42-8.73 14.16-8.73s10.79 3.37 14.09 8.63a10.85 10.85 0 009.36 5.14h.15c4.49-.07 8.34 3.53 10.26 8.77z" opacity=".03"></path>
    <path d="M204.34 215.86l14.66 9.28-8.88-16.15a14.48 14.48 0 018.85-3.15h.23a17.08 17.08 0 003-.22l4.95 3.14-2.15-3.86a17.78 17.78 0 008.67-6.58l8.87 5.62-5.54-10.19c5.19-6.22 12.18-10 19.87-10 9.23 0 17.44 5.48 22.75 14a17 17 0 0015 8.11h.5c10.18 0 18.43 11.54 18.43 25.78s-8.25 25.79-18.43 25.79a13.86 13.86 0 01-6.43-1.61 26.59 26.59 0 00-22.31-.43 23.28 23.28 0 01-19 0 26.64 26.64 0 00-22.12.43 13.9 13.9 0 01-6.35 1.57c-10.19 0-18.44-11.54-18.44-25.79a32.78 32.78 0 013.87-15.74z" fill="#f2f2f2"></path>
    <path d="M231.89 253.59a27.36 27.36 0 0115.8 1.72 23.28 23.28 0 0019 0 26.61 26.61 0 0122.32.43 13.82 13.82 0 006.42 1.61c9.05 0 16.57-9.11 18.14-21.13a17.44 17.44 0 01-4.52-4.88c-5.31-8.54-13.52-14-22.75-14s-17.33 5.42-22.64 13.88a17.44 17.44 0 01-15 8.25h-.23c-7.26-.07-13.5 5.71-16.54 14.12z" opacity=".03"></path>
  </symbol>
  <symbol xmlns="http://www.w3.org/2000/svg" viewBox="0 0 1015.128 526" id="static-website">
    <title>static_website</title>
    <path fill="#3f3d56" d="M361.35 295.154L443.078 6.14l512.34 144.882-81.728 289.013z"></path>
    <circle cx="451.929" cy="18.229" r="4.243" fill="currentColor"></circle>
    <circle cx="464.995" cy="21.924" r="4.243" fill="currentColor"></circle>
    <circle cx="478.061" cy="25.618" r="4.243" fill="currentColor"></circle>
    <path d="M714.984 189.53a49.571 49.571 0 00-20.704.488 49.483 49.483 0 001.463-20.92 49.194 49.194 0 00-18.506 11.943 49.193 49.193 0 00-9.512-19.866 49.482 49.482 0 00-9.708 18.589 49.572 49.572 0 00-17.382-11.259s-3.09 15.716 4.35 28.612c6.62 11.478 19.343 16.849 22.062 17.892l.064.077.034-.04c.276.106.43.159.43.159s.06-.302.14-.84l.152-.19.03.241c-.213.501-.321.789-.321.789s.16.035.45.09l.008.052.095-.032c2.863.535 16.514 2.622 28.165-3.688 13.092-7.09 18.69-22.097 18.69-22.097z" fill="currentColor"></path>
    <circle cx="689.592" cy="138.352" r="11.032" fill="currentColor"></circle>
    <path fill="currentColor" d="M496.569 187.834l331.547 93.757-2.04 7.213-331.547-93.757zm20.871 44.707l57.162 16.165-16.164 57.164-57.164-16.165zm106.16 30.02l57.164 16.165-16.165 57.164-57.164-16.165zm106.161 30.021l57.163 16.165-16.164 57.164-57.164-16.165zm-224.37 10.634l42.464 12.008-1.386 4.9-42.463-12.008zm106.161 30.02l42.464 12.008-1.386 4.9-42.463-12.008zm106.16 30.021l42.464 12.008-1.386 4.9-42.463-12.008z"></path>
    <ellipse cx="289.6" cy="396.5" rx="284" ry="10.5" fill="#d0cde1"></ellipse>
    <ellipse cx="794.128" cy="515.5" rx="221" ry="10.5" fill="#d0cde1"></ellipse>
    <path d="M685.736 434h63.758v26.664H712.4v26.663h37.097v26.662h-63.761zm76.511 0h63.76v23.186H788.91v4.636h37.096v53.328h-63.758v-24.348h37.096v-4.637h-37.1V434zm76.513 0h63.76v23.186h-37.096v4.636h37.096v53.328h-63.76v-24.348h37.096v-4.637h-37.094V434zM128.49 312h26.302v25.986h24.061V312h26.304v78.693h-26.302v-26.351h-24.061v26.35h-26.302V312zm111.254 26.096h-23.152V312h72.625v26.096h-23.166v52.597H239.75v-52.597h-.005zm61-26.096h27.425l16.87 27.65L361.893 312h27.437v78.693h-26.196v-39.005l-18.095 27.98h-.454l-18.107-27.98v39.005h-25.735zm101.675 0h26.31v52.682h36.99v26.01h-63.301V312z" fill="#3f3d56"></path>
    <path fill="#ffb8b8" d="M82.034 366.091l-2.158 24.467 17.27-1.44V368.25l-15.112-2.159zm-15.831 0l2.159 24.467-17.27-1.44V368.25l15.111-2.159z"></path>
    <path d="M111.538 178.276s5.757 34.54 5.757 39.578-2.159 37.419-5.757 43.895-4.318 9.355-2.878 12.233.72 2.16 0 4.318-2.16 1.44 0 4.318a7.56 7.56 0 010 8.635c-1.44 2.159 2.878 60.446-2.879 64.764s-7.196 18.71-7.196 18.71l-18.71-2.16v-15.83s-4.317-11.514-1.439-18.71 4.318-45.335 4.318-45.335-.72-3.598 0-5.757 0-3.598-1.44-4.317-2.158-3.598-2.158-3.598l-2.159-52.531-8.635 51.811s8.635 70.52 0 79.876v16.55h-18.71l2.879-17.99s-5.757-16.55-2.879-20.148-8.635-61.166-7.196-63.325.72-2.879 0-4.318-2.878-2.878-2.158-4.317 0-4.318 0-4.318-13.673-67.642-7.196-74.119 78.436-7.915 78.436-7.915zM84.193 381.203s1.44-6.902 12.953-4.53c0 0 2.878 5.969 2.878 8.847s2.879 22.308 2.879 22.308 11.513 19.43-2.879 19.43-19.429-5.038-20.148-10.075.72-6.477-2.16-8.635-4.317-2.16-3.597-5.038 2.159-17.27 2.159-17.27.72-10.794 4.677-7.916l3.958 2.879" fill="#2f2e41"></path>
    <path d="M64.044 381.203s-1.439-6.902-12.952-4.53c0 0-2.879 5.969-2.879 8.847s-2.878 22.308-2.878 22.308-11.514 19.43 2.878 19.43 19.43-5.038 20.149-10.075-.72-6.477 2.159-8.635 4.317-2.16 3.598-5.038-2.159-17.27-2.159-17.27-.72-10.794-4.677-7.916l-3.958 2.879" fill="#2f2e41"></path>
    <circle cx="84.913" cy="26.44" r="19.429" fill="#ffb8b8"></circle>
    <path d="M69.082 29.319S61.166 60.26 59.727 60.98s33.101 3.598 33.101 3.598-8.635-26.625 0-30.943z" fill="#ffb8b8"></path>
    <path d="M64.026 48.175v-.004L40.297 64.579l4.317 128.808s31.663-3.598 38.859-2.878 30.223-6.477 30.223-6.477L103.61 62.997a9.942 9.942 0 00-9.208-9.092L90.08 53.6s-4.317 10.69-17.306 5.175a15.156 15.156 0 01-8.748-10.6z" fill="#d0cde1"></path>
    <path d="M64.6 47L35.26 60.98l-5.756 82.755s-11.514 49.652-2.16 64.044 25.187 15.831 25.187 15.831 20.868-82.754 15.111-110.818S64.6 47 64.6 47z" fill="#575a89"></path>
    <path d="M9.355 171.8v10.793S5.037 206.34 18.71 205.62s7.196-25.905 7.196-25.905l-4.318-7.916zm126.649 21.587l-1.439 12.233s7.196 24.467-6.476 25.186-3.748-25.035-3.748-25.035l4.467-13.823z" fill="#ffb8b8"></path>
    <path d="M89.647 51.085a84.747 84.747 0 0135.439 18.423l.124.108-10.074 53.25-1.44 19.43s26.626 94.987-4.317 81.314c0 0-26.625-82.754-23.027-120.892s3.295-51.633 3.295-51.633z" fill="#575a89"></path>
    <path d="M115.856 68.897c.72-.72 9.354 1 9.354 1s15.832 55.848 15.832 65.203 2.158 62.605 2.158 62.605l-18.995 1.915-15.375-73.987zM40.298 60.98H35.26s-14.392 5.759-15.11 12.235S0 145.174 0 145.174l5.037 33.102 18.71-2.879 3.598-36.7L46.055 98.4z" fill="#575a89"></path>
    <path d="M81.138 31.863l.745-5.193c.174-1.21.882-2.802 2.06-2.473 1.001.28 3.183 1.137 3.549.879 1.368-.97 3.438.725 4.877-.136.603-.36.996-1.133 1.697-1.185a1.933 1.933 0 011.245.564 8.477 8.477 0 003.224 1.752 3.468 3.468 0 003.395-.925 1.803 1.803 0 01.6-.576 1.347 1.347 0 01.863.04l3.676 1a14.126 14.126 0 00-1.89-11.63 23.391 23.391 0 00-5.354-5.243Q96.41 6.14 92.777 3.85A22.892 22.892 0 0084.214.125c-3.1-.47-6.571.371-8.521 2.827A5.487 5.487 0 0173.719.286a2.02 2.02 0 00.13 3.096L70.74 1.397c-.874.918.834 2.582.09 3.607a1.9 1.9 0 01-.838.547 14.252 14.252 0 00-4.558 2.869 17.01 17.01 0 00-3.59 6.613c-1.853 5.315-3.2 11.41-.567 16.386.298.564 4.237 9.873 4.762 10.236 1.774 1.227.619-1.742 1.89 0 .997 1.367.81-3.863 2.292-2.715a3.693 3.693 0 004.02.18c.614-.426.416-2.79.084-4.963a2.559 2.559 0 013.114-2.879c1.845.434 3.668.805 3.7.585z" fill="#2f2e41"></path>
    <path opacity=".2" d="M117.655 134.02l7.915 65.484h-5.037l-2.878-65.484zm-83.474-25.186l-4.002 25.186 7.6-25.186h-3.598z"></path>
  </symbol>
  <symbol xmlns="http://www.w3.org/2000/svg" viewBox="0 0 1041.32 554.17" id="code-it">
    <defs>
      <linearGradient id="a" x1="597.75" y1="725.44" x2="597.75" y2="347.69" gradientUnits="userSpaceOnUse">
        <stop offset="0" stop-color="gray" stop-opacity=".25"></stop>
        <stop offset=".54" stop-color="gray" stop-opacity=".12"></stop>
        <stop offset="1" stop-color="gray" stop-opacity=".1"></stop>
      </linearGradient>
    </defs>
    <title>programming</title>
    <path d="M961.48 438.21q-1.74 3.75-3.47 7.4-2.7 5.67-5.33 11.12c-.78 1.61-1.56 3.19-2.32 4.77-8.6 17.57-16.63 33.11-23.45 45.89a73.21 73.21 0 01-63.81 38.7l-151.65 1.65h-1.6l-13 .14-11.12.12-34.1.37h-1.38l-17.36.19h-.53l-107 1.16-95.51 1-11.11.12-69 .75h-.08l-44.75.48h-.48l-141.5 1.53-42.33.46a88.07 88.07 0 01-26.67-3.82 86.39 86.39 0 01-39.09-24.75c-18.18-20.03-31.43-43.4-40.33-68.76q-1.93-5.49-3.6-11.12c-30.81-104.15 6.75-238.52 74.35-328.44q4.25-5.64 8.64-11l.07-.08c20.79-25.52 44.1-46.84 68.93-62 44-26.91 92.75-34.49 140.7-11.9 40.57 19.12 78.45 28.11 115.17 30.55 3.71.24 7.42.42 11.11.53 84.23 2.65 163.17-27.7 255.87-47.29 3.69-.78 7.39-1.55 11.12-2.28C763 .54 836.36-6.4 923.6 8.19a189.09 189.09 0 0126.76 6.4q5.77 1.86 11.12 4c41.64 16.94 64.35 48.24 74 87.46q1.37 5.46 2.37 11.11c17.11 94.34-33 228.16-76.37 321.05z" fill="currentColor" opacity=".1"></path>
    <g opacity=".1" fill="currentColor">
      <path d="M162.9 44.09v509.62l-42.33.46a88.07 88.07 0 01-26.67-3.82V106.09h.07c20.79-25.55 44.1-46.87 68.93-62z"></path>
      <path d="M1037.9 117.17H85.26q4.25-5.64 8.64-11v-.08h941.63q1.37 5.43 2.37 11.08z"></path>
      <path d="M961.48 18.6v427h-3.47q-2.7 5.67-5.33 11.12c-.78 1.61-1.56 3.19-2.32 4.77V14.56q5.77 1.86 11.12 4.04zm-264.61-4.93v534.25l-11.12.12V15.95c3.69-.78 7.39-1.55 11.12-2.28zM429.88 63.24v487.58l-11.11.12V62.71c3.71.24 7.42.38 11.11.53z"></path>
      <path d="M958.01 445.61q-2.7 5.67-5.33 11.12H14.51q-1.93-5.49-3.6-11.12z"></path>
    </g>
    <path fill="#3f3d56" d="M211.6 265.83h19v57.66h-19zm511.33-3h19v61h-19z"></path>
    <path fill="#65617d" d="M863.1 533.65v13l-151.92 1.4-1.62.03-57.74.53-1.38.02-17.55.15h-.52l-106.98.99-175.61 1.63h-.15l-44.65.42-.48.01-198.4 1.82v-15l46.65-28 93.6-.78 2-.01.66-.01 2-.03 44.94-.37 2.01-.01.64-.01 2-.01 14.41-.12.38-.01 35.55-.3h.29l277.4-2.34 6.79-.05h.68l5.18-.05 37.65-.31 2-.03 1.85-.02h.96l11.71-.09 2.32-.03 3.11-.02 9.75-.09 15.47-.13 2-.02 3.48-.02h.65l74.71-.64 56.16 28.5z"></path>
    <path opacity=".2" d="M863.1 533.65v13l-151.92 1.4-1.62.03-57.74.53-1.38.02-17.55.15h-.52l-106.98.99-175.61 1.63h-.15l-44.65.42-.48.01-198.4 1.82v-15l46.65-28 93.6-.78 2-.01.66-.01 2-.03 44.94-.37 2.01-.01.64-.01 2-.01 14.41-.12.38-.01 35.55-.3h.29l277.4-2.34 6.79-.05h.68l5.18-.05 37.65-.31 2-.03 1.85-.02h.96l11.71-.09 2.32-.03 3.11-.02 9.75-.09 15.47-.13 2-.02 3.48-.02h.65l74.71-.64 56.16 28.5z"></path>
    <path d="M296.1 483.66v24.49a6.13 6.13 0 01-3.5 5.54 6 6 0 01-2.5.6l-34.9.74a6 6 0 01-2.7-.57 6.12 6.12 0 01-3.57-5.57v-25.23z" fill="#3f3d56"></path>
    <path d="M296.1 483.66v24.49a6.13 6.13 0 01-3.5 5.54 6 6 0 01-2.5.6l-34.9.74a6 6 0 01-2.7-.57 6.12 6.12 0 01-3.57-5.57v-25.23z" opacity=".1"></path>
    <path d="M298.1 483.66v24.49a6.13 6.13 0 01-3.5 5.54 6 6 0 01-2.5.6l-34.9.74a6 6 0 01-2.7-.57 6.12 6.12 0 01-3.57-5.57v-25.23zm382.83 0h47.17v31.5h-47.17z" fill="#3f3d56"></path>
    <path opacity=".1" d="M680.93 483.66h47.17v31.5h-47.17z"></path>
    <path fill="#3f3d56" d="M678.93 483.66h47.17v31.5h-47.17z"></path>
    <path opacity=".1" d="M230.6 265.82v5.73l-19-.49v-5.24h19z"></path>
    <path d="M355.66 104.4l-22.83 164a4.3 4.3 0 01-4.37 3.71l-182.8-4.74-3.47-.09a4.3 4.3 0 01-4.16-4.87l25.63-171.68a4.3 4.3 0 014.54-3.63l183.46 12.42a4.29 4.29 0 014 4.88z" fill="#65617d"></path>
    <path fill="currentColor" d="M175.93 99.16L156.6 250.49l168 5.33 20.66-146-169.33-10.66z"></path>
    <rect x="384.6" y="96.82" width="204.67" height="173.33" rx="5.33" ry="5.33" fill="#65617d"></rect>
    <path fill="currentColor" d="M394.26 108.49h186v144.33h-186z"></path>
    <path opacity=".1" d="M741.93 262.82v3.79l-19 .39v-4.18h19z"></path>
    <path d="M827.66 259.62a3.08 3.08 0 01-3 3.28l-187.2 3.87a3.08 3.08 0 01-3.13-2.79L618.24 96.7a3.08 3.08 0 012.92-3.37l185.78-9.24 2-.1a3.07 3.07 0 013.22 2.8z" fill="#65617d"></path>
    <path fill="currentColor" d="M628.93 103.16l169.67-8.34 14.33 152-168.33 4-15.67-147.66z"></path>
    <path d="M827.66 259.62a3.08 3.08 0 01-3 3.28L806.94 84.09l2-.1a3.07 3.07 0 013.22 2.8zM168.23 87.09l-22.57 180.28-3.47-.09a4.3 4.3 0 01-4.16-4.87l25.63-171.68a4.3 4.3 0 014.57-3.64zm43.37 219.32h19v17.08h-19zm86.5 177.24v4.97l-47.17 1.26v-6.23h47.17z" opacity=".1"></path>
    <path d="M381.35 312.36v168.2a4 4 0 01-3.85 3.95l-191.65 5.1h-.05a4 4 0 01-3.95-3.95v-173.3a4 4 0 013.95-3.95h191.6a4 4 0 013.95 3.95z" fill="#65617d"></path>
    <path d="M185.85 308.41v181.2h-.05a4 4 0 01-3.95-3.95v-173.3a4 4 0 013.95-3.95z" opacity=".1"></path>
    <path fill="#d4dfec" d="M194.6 319.15h177.5V467.4l-177.5 4V319.15z"></path>
    <path opacity=".1" d="M722.93 306.41h19v17.42h-19zm3.17 177.24v6.41l-47.17-1.26v-5.15h47.17z"></path>
    <path d="M788.35 312.36v173.3a4 4 0 01-4 3.95l-191.69-5.1a4 4 0 01-3.85-3.95v-168.2a4 4 0 013.95-3.95h191.6a4 4 0 013.99 3.95z" fill="#65617d"></path>
    <path d="M788.35 312.36v173.3a4 4 0 01-4 3.95v-181.2a4 4 0 014 3.95z" opacity=".1"></path>
    <path fill="#d4dfec" d="M775.6 319.15H598.1V467.4l177.5 4V319.15z"></path>
    <path d="M583.85 312.36v168.2a4 4 0 01-3.85 3.95l-191.65 5.1a4 4 0 01-4-3.95v-173.3a4 4 0 013.95-3.95h191.6a4 4 0 013.95 3.95z" fill="#65617d"></path>
    <path fill="#d4dfec" d="M397.1 319.15h177.5V467.4l-177.5 4V319.15z"></path>
    <path opacity=".1" d="M863.1 533.65v13l-151.92 1.4-1.62.03-57.74.53-1.38.02-17.55.15h-.52l-106.98.99-175.61 1.63h-.15l-44.65.42-.48.01-198.4 1.82v-15l202.51-1.33h.48l40.99-.28h.19l283.08-1.87h.29l.17-.01h.47l4.79-.03h1.46l74.49-.5 4.4-.02.98-.01 142.7-.95z"></path>
    <circle cx="487.26" cy="272.16" r="51.33" fill="#fbbebe"></circle>
    <path d="M383.74 725.09c0-.11.06-.23.1-.35 1-3.59 2.78-9.66 4.11-14.51.17-.6.33-1.19.48-1.75 1.47-5.47 4.33-18.28 5.92-26.27.56-2.81 1-5 1.09-6.1.2-1.69 3.21-8.92 6.62-17.23 2.39-5.84 5-12.22 6.91-17.6a61.38 61.38 0 002.93-9.85 5.1 5.1 0 000-2.13 14.69 14.69 0 01-.48-3.5c-.23-6.2 1.62-16 4.48-20.11 3.5-5 6-23.66 6-23.66s5.18.75 6-3.53a6.15 6.15 0 00.1-1.4 7.41 7.41 0 00-.09-1.11c-.89-6.24 14.72-12.88 23.5-14.31a19.67 19.67 0 013-.28 27.24 27.24 0 006.25-1.44q1.4-.43 3-1c3.68-1.24 8.08-2.88 12.75-4.68 17.56-6.81 38.82-16 38.82-16 .15-.71.32-1.39.51-2.06a27.71 27.71 0 0116.35-18.93v-2c0-3.45-.15-7-.3-10.54 0-.69-.06-1.38-.1-2.07v-1.13c0-.7-.07-1.4-.11-2.09l-.18-.14a16.41 16.41 0 01-3.9-4.2 15.27 15.27 0 01-1.42-3c-1.25-3.39-1.54-7.17-2.38-10.75l-.18-.74a84 84 0 00-4-10.58c-2.21-5.42-3.91-11-5.6-16.65q-1.54-5.13-3.11-10.28l-1.58-5.24c-.3-1-.6-2-.83-3a13.27 13.27 0 01-.26-1.4 10 10 0 01.24-4.61 32.09 32.09 0 011.32-3 7.87 7.87 0 00.5-1.38 3 3 0 00.08-.32 5.65 5.65 0 00.11-1.08 18.46 18.46 0 00-.52-3.89.07.07 0 010-.05 2.56 2.56 0 00-.05-.27 25.48 25.48 0 01-.36-3 28.45 28.45 0 013.47-15.57l.19-.36a25.22 25.22 0 011.84-2.78c.31-.42.63-.82 1-1.22-1.4 1.34-3.7.75-5-.69a3.61 3.61 0 01-.55-.75 3.81 3.81 0 01-.23-.45c-.05-.12-.09-.25-.13-.38-.7-2.45.52-5.06 2.12-7.05a18.49 18.49 0 015.74-4.7 3.84 3.84 0 01.4-.21 17.12 17.12 0 012.64-1.06 15.06 15.06 0 011.63-.44l-3.71-.34-1.5-.14a14.49 14.49 0 0113-10.91h1.08a11.73 11.73 0 011.57.13 4.44 4.44 0 01-2.65-4.33 14.41 14.41 0 009.19 3.06h.38a30 30 0 01-.34-3.27 33.19 33.19 0 010-4.46 8.44 8.44 0 006.78 2.26l-2.08-2.9a9.49 9.49 0 006.56 2.05l.48-.05a7 7 0 001.19-.23h.09c-.19-.24-.36-.49-.53-.75l-.06-.12a9.67 9.67 0 01-1-2.09 6.59 6.59 0 01-.24-.87 8.75 8.75 0 01.45-5.45c3.23 2.7 6.77 6.39 11 3.6s4.37-7.91 11-7.39a10.2 10.2 0 018.41 6.12 6.75 6.75 0 017.67-1.75 6.85 6.85 0 013.88 6.89c2.75-.69 5.71-1.37 8.35-.33s4.34 4.41 2.84 6.66a1.43 1.43 0 01-.14.2c-1.23 1.59-3.95 2.46-3.66 4.46l.42.3 1.3.94q7.65 5.52 14.9 11.6c2.48 2.08 5.12 4.58 5.29 7.83a8.64 8.64 0 01-.24 2.37c-.16.78-.38 1.56-.55 2.34a19.51 19.51 0 00-.34 6.05c.07.59.16 1.17.27 1.76 1.53 7.73 7.71 14.11 8.32 22v.56a17.78 17.78 0 01-.07 2.53c-.46 4.8-2.68 9.41-4.48 14-.11.28-.22.56-.32.84-3.47 9-5.47 18.59-7 28.16a100.26 100.26 0 01-2 10.09 26.73 26.73 0 01-5.09 10.43 16.22 16.22 0 01-3.36 3 18.67 18.67 0 01-2.65 1.41v.06c.11.61.2 1.22.31 1.83.06.32.11.64.17 1a.14.14 0 000 .06c.84 4.73 1.8 9.36 2.81 13.76l.51 2.19c12.6 4.55 14.09 13.87 14.18 17.44a9.64 9.64 0 010 1.43s19 .5 26.5 6a20.34 20.34 0 004.51 2.3 83 83 0 009.25 2.89c1.61.42 3.29.83 5 1.23 3 .69 6.18 1.36 9.25 2 8.19 1.65 15.9 3 19.81 4 9.33 2.36 30.67 22.82 30.67 22.82s2.5 20.64 5 23.65 7 13.59 7 13.59l16.54 29.41 7 12.37h4.5c.62 0 1.84.88 3.21 2.1 1.19 1.06 2.51 2.38 3.67 3.58l1.92 2.05 1.2 1.33s7.27.18 9.24 5.93c5.92-.17 13.19.22 18.28 2.5a14.14 14.14 0 012 1.08 8.68 8.68 0 014.13 5.66 8.34 8.34 0 01.18 1.44v1.7c-.36 7.57-5.29 13.87-9.82 18.11l.32.57s-.15.36-.44 1c-.08.19-.18.4-.29.64-.59 1.26-1.53 3.15-2.76 5.36a63.31 63.31 0 01-9.57 13.17l-.29.3-57.74.53-.17-.2-11.2-13.36-5.57-6.64-.17-.21-.16 1.59-.54 5.3-1.3 12.81-.07.64v.17l-.15 1.48.11-1.48h-.29l-107 1-175.62 1.94v.84h-.14v-.84l-44.75.48z" transform="translate(-79.34 -172.91)" fill="url(#a)"></path>
    <path d="M538.6 377.16s-99.5 12-90 0c3.44-4.34 4.39-17.2 4.2-31.85-.06-4.45-.22-9.06-.45-13.65-1.1-22-3.75-43.5-3.75-43.5s87-41 77-8.5c-4 13.13-2.69 31.57.35 48.88.89 5.05 1.92 10 3 14.7a344.67 344.67 0 009.65 33.92z" fill="#fbbebe"></path>
    <path d="M538.6 377.16s-99.5 12-90 0c3.44-4.34 4.39-17.2 4.2-31.85 15.17-6.48 34.47-1.65 34.47-1.65 20.32-4.05 33.35-3.26 41.68-.42a344.67 344.67 0 009.65 33.92z" opacity=".1"></path>
    <path d="M349.74 552.53v-.84l175.62-1.91 107-1h.3l-.11 1.48.15-1.48h.19v-.17l1.37-13.45.52-5.09.16-1.59.14-1.33 6.18-20.61 6.18-20.58 5.2-17.33 7.94-26.48s-4.5-10.5-7-13.5-5-23.5-5-23.5-21.34-20.33-30.67-22.67c-3.91-1-11.63-2.33-19.83-4-3.07-.62-6.22-1.28-9.25-2-1.71-.39-3.39-.8-5-1.21a87.91 87.91 0 01-9.25-2.86 20.7 20.7 0 01-4.5-2.29c-7.35-5.39-25.77-6-26.48-6a.42.42 0 010-.07v-.09a10.26 10.26 0 000-1.26c0-.4 0-.87-.09-1.4 0-.16 0-.33-.07-.5-.05-.36-.11-.74-.2-1.14a5 5 0 00-.12-.53 17.21 17.21 0 00-1.25-3.49c-.07-.16-.16-.33-.24-.49a18.25 18.25 0 00-1.7-2.63c-.13-.17-.27-.35-.42-.52a19.58 19.58 0 00-2.72-2.64c-.27-.21-.55-.43-.84-.63a4.67 4.67 0 00-.51-.36l-.89-.58-.83-.48c-.73-.4-1.5-.79-2.34-1.16-.26-.12-.54-.23-.82-.34s-.72-.28-1.09-.42h-.06l-.75-.3a36.7 36.7 0 00-1.76-.53l-.93-.24-1-.23-1-.21c-1-.2-2.07-.38-3.19-.52l-1.14-.14-1.17-.12-1.21-.1-1.72-.1-2-.07a124.68 124.68 0 00-26.24 2.79 72.27 72.27 0 00-18.26-1.68h-.87l-1 .06h-.64l-1.29.12c-.43 0-.87.09-1.3.15s-.88.11-1.31.18l-.66.11c-.65.11-1.31.23-2 .37q-.33.06-.66.15c-.87.19-1.74.42-2.6.68-.43.12-.86.26-1.29.41-.22.06-.43.14-.64.22l-.64.23-.63.25-.75.3c-.38.16-.75.33-1.12.51-.21.09-.42.19-.62.3s-.41.2-.6.31a27.75 27.75 0 00-6.21 4.38l-.51.49-.5.51c-.17.17-.33.35-.49.53a23.82 23.82 0 00-1.82 2.25c-.16.21-.31.42-.46.64a26.69 26.69 0 00-1.72 2.92c-.13.24-.25.49-.37.73a32.7 32.7 0 00-2 5.25q-.28 1-.51 2s-21.17 9.34-38.73 16.1c-4.67 1.8-9.07 3.43-12.75 4.66-1.07.36-2.07.69-3 1a26.7 26.7 0 01-6.25 1.44 19.67 19.67 0 00-3 .28c-8.07 1.31-21.9 7-23.41 12.71a3.69 3.69 0 00-.1 1.4v.11c1 7-6 6-6 6s-2.5 18.5-6 23.5c-2.53 3.6-4.26 11.63-4.48 17.69a19.61 19.61 0 00.44 5.63v.14c.4 1.34-.56 5-2.19 9.69-1.77 5.15-4.35 11.55-6.83 17.59-3.74 9.12-7.26 17.4-7.48 19.22-.09.81-.35 2.26-.71 4.13-1.46 7.62-4.7 22.13-6.3 28-1.19 4.38-2.92 10.38-4.11 14.5 0 .12-.07.24-.1.35l44.83-.44v.84h.14z" fill="currentColor"></path>
    <path d="M366.1 434.66s57 29.5 77.5 26zm116-12s55.5 18 74 20.5-74-20.5-74-20.5zm61.56-57.92c-29 5.34-83.6 4.19-107.2 3.38 8.65-31 50.83-20.46 50.83-20.46 52.21-10.42 56.21 11.2 56.37 17.08z" opacity=".1"></path>
    <path d="M543.66 362.74c-29 5.34-83.6 4.19-107.2 3.38 8.65-31 50.83-20.46 50.83-20.46 52.21-10.42 56.21 11.2 56.37 17.08z" fill="currentColor"></path>
    <path d="M697.6 499.41s34.16-5.25 34.83 9.75-17.42 25.48-17.42 25.48z" fill="#fbbebe"></path>
    <path d="M525.95 328.54a47 47 0 01-4.5 1.74c-10.78 3.72-21.65 7.47-33 8.83s-23.26.16-33.16-5.5a28.77 28.77 0 01-3-1.95c-1.1-22-3.75-43.5-3.75-43.5s87-41 77-8.5c-3.98 13.13-2.63 31.57.41 48.88z" opacity=".1"></path>
    <path d="M473.18 191.93a9.47 9.47 0 01-8.32-1.75l2.08 2.89a8.47 8.47 0 01-6.78-2.25 34.08 34.08 0 00.32 7.75 14.52 14.52 0 01-9.56-3 4.42 4.42 0 002.64 4.31 14.34 14.34 0 00-15.6 10.71l5.22.48a18.47 18.47 0 00-10.44 6.37c-1.6 2-2.82 4.56-2.12 7s4.08 4 5.92 2.26a27.94 27.94 0 00-6.1 22.79 14.47 14.47 0 01.46 5.26c-.33 1.65-1.37 3.08-1.89 4.69-1 2.92-.05 6.09.84 9l4.69 15.42c1.7 5.57 3.39 11.15 5.61 16.54a82.08 82.08 0 014 10.51c1.26 4.84 1.31 10.14 4 14.37a19.93 19.93 0 007.18 6.33c9.89 5.66 21.84 6.86 33.16 5.5s22.18-5.11 32.95-8.83a31 31 0 006.84-3c7.45-4.88 9.11-14.86 10.5-23.65 1.55-9.8 3.62-19.58 7.29-28.8 2.18-5.49 5-11.06 4.52-16.94-.61-7.81-6.79-14.14-8.32-21.82a19 19 0 01.07-7.77 17.66 17.66 0 00.79-4.7c-.17-3.22-2.81-5.7-5.29-7.77q-8.07-6.74-16.66-12.74c-.29-2 2.43-2.86 3.66-4.44 1.74-2.23-.06-5.77-2.7-6.81s-5.6-.36-8.35.33a6.59 6.59 0 00-11.55-5.11 10.2 10.2 0 00-8.42-6.08c-6.63-.52-6.76 4.55-11 7.34s-7.74-.89-11-3.57a9.28 9.28 0 001.36 9.18z" fill="#3f3d56"></path>
    <path d="M722.93 529.41s-.89 2.12-2.53 5.19a69 69 0 01-9 13.17l-.27.29h-1.62l-57.74.53h-1.38l-.17-.2-11.2-13.29-4.22-5.01-.17-.21-.36-.42-.2-.24-.26-.31-8.21-9.74 3-12.5 5.11-21.06.13-.51 1-4 .71-3 2.38-9.78 8.16-33.65 14.5 7.5 15.29 27 8.21 14.5h4.5c.85 0 2.8 1.64 4.76 3.53.7.67 1.4 1.38 2 2 1.78 1.84 3.19 3.42 3.19 3.42s7.29.16 9.25 5.9a7 7 0 01.25.85 40.3 40.3 0 002.53 6.56c1.29 2.81 2.91 6 4.55 9.19 3.05 5.85 6.15 11.42 7.29 13.44l.14.25z" fill="currentColor"></path>
    <path d="M637.03 484.26l-.1 1.43v.1l-.17 2.3-1.33 18.51-1.61 22.3-.46 6.28-1 13.44v.17l-107 1-175.59 1.9v.84h-.14v-1.12l.45-14.36.86-28.06.74-23.79.07-2.37a10.53 10.53 0 0111.42-10.17c4.72.4 10.85.89 18.18 1.41l3 .22c42.33 2.94 120.56 6.74 199.5 2 1.66-.09 3.33-.19 5-.31 12.24-.77 24.47-1.76 36.58-3a10.53 10.53 0 0111.6 11.23z" opacity=".1"></path>
    <path d="M349.74 552.53v-.84l175.62-1.91 107-1h.3v-.17l1-13.44.43-6 1.64-22.61 1.29-17.9v-.44a10.62 10.62 0 00-.11-2.47.3.3 0 000-.1 10.39 10.39 0 00-2-4.64 10.54 10.54 0 00-9.42-4 937.419 937.419 0 01-36.58 3c-1.67.12-3.34.22-5 .31-78.94 4.69-157.17.89-199.5-2l-3-.22c-7.33-.52-13.46-1-18.18-1.41a10.54 10.54 0 00-11.24 8.53 11 11 0 00-.18 1.64l-.68 22.16-.93 28.07-.44 14.36v1.12z" fill="#3f3d56"></path>
    <path d="M637.33 491.27l-1.23 15.33-1.83 22.85-.46 5.72-1 12.81-.06.64v.17l-.15 1.48.11-1.48h-.29l-107 1-175.65 1.9v-.28l.49-14.36 1-28.06.64-18.65a6.36 6.36 0 013.06-5.25 6.25 6.25 0 013.78-.9c2.1.17 4.68.37 7.69.59 4.89.36 10.92.78 17.94 1.22 13 .82 29.31 1.7 48 2.42 52 2 122.2 2.67 188.88-3.17 3-.26 6.1-.55 9.13-.84a6.26 6.26 0 013.48.66 5.16 5.16 0 01.86.54 6.14 6.14 0 012 2.46 3.56 3.56 0 01.25.61 6.28 6.28 0 01.36 2.59zM298.1 504.96v3.19a6.13 6.13 0 01-3.5 5.54l-40.1.77a6.12 6.12 0 01-3.57-5.57v-3z" opacity=".1"></path>
    <path fill="#3f3d56" d="M298.6 515.57l-52.25 1v-8.67l52.25-1v8.67z"></path>
    <path opacity=".1" d="M298.6 515.57l-52.25 1v-8.67l52.25-1v8.67z"></path>
    <path fill="#3f3d56" d="M300.6 515.57l-52.25 1v-8.67l52.25-1v8.67z"></path>
    <path d="M473.59 188.65a9.75 9.75 0 01-1.89-4.34 9.49 9.49 0 00.42 4.6 9 9 0 001.47-.26zm-12.7 6.64a35.12 35.12 0 01-.37-3.7v3.71zm81.5 33.37a18.34 18.34 0 01.36-2.65 18 18 0 00.8-4.69 6.16 6.16 0 00-.16-1.06c-.17.92-.44 1.84-.64 2.75a19.14 19.14 0 00-.36 5.65zm-20.8-30.9l1.09.79a19.71 19.71 0 002.57-2.22 3.67 3.67 0 00.38-3.64 3 3 0 01-.38.64c-1.23 1.58-3.95 2.45-3.66 4.43zm-82.17 9.62a12.32 12.32 0 00-.87 2.28 18.16 18.16 0 015-1.89zm13.79-10.88a14.83 14.83 0 01-1.88-1.23 4.25 4.25 0 00.09 1.18 11.86 11.86 0 011.79.05zm97.77 58.92c-.41 4.85-2.67 9.52-4.5 14.12-3.67 9.22-5.74 19-7.29 28.81-1.39 8.79-3 18.77-10.5 23.64a30 30 0 01-6.83 3c-10.78 3.73-21.65 7.47-33 8.83s-23.26.17-33.16-5.49a20 20 0 01-7.18-6.33c-2.67-4.23-2.72-9.53-4-14.37a82.21 82.21 0 00-4-10.52c-2.21-5.38-3.91-11-5.6-16.53q-2.35-7.71-4.69-15.43a28.81 28.81 0 01-1.14-4.75c-.39 2.56.37 5.24 1.14 7.75q2.34 7.73 4.69 15.43c1.69 5.57 3.39 11.15 5.6 16.53a82.21 82.21 0 014 10.52c1.26 4.84 1.31 10.14 4 14.37a20 20 0 007.18 6.33c9.9 5.66 21.84 6.85 33.16 5.49s22.18-5.1 33-8.83a30 30 0 006.83-3c7.45-4.87 9.11-14.85 10.5-23.64 1.55-9.81 3.62-19.59 7.29-28.81 2.18-5.48 5-11.05 4.52-16.94 0-.06-.02-.12-.02-.18zm-119.69-3.87v-.11a14 14 0 00-.46-5.25 26.59 26.59 0 01-.39-3.32 27.35 27.35 0 00.39 6.32c.16.78.34 1.57.46 2.36zm3.05-24.46a27.74 27.74 0 012.61-3.67c-1.83 1.75-5.21.19-5.92-2.24a5.83 5.83 0 000 3 4.39 4.39 0 003.31 2.91zM684.1 483.66s3.17 11.5 0 21.5 0-21.5 0-21.5zm13.5 11.73s1.33 14.6-1.67 17.19 1.67-17.19 1.67-17.19z" opacity=".1"></path>
    <path fill="none" stroke="currentColor" stroke-miterlimit="10" stroke-width="2" d="M198.99 342.86l101.61-1m-101.61 13.47l101.61-.99m-101.61 13.47l101.61-1"></path>
  </symbol>
</svg>